<?xml version="1.0" standalone="no"?>
<!DOCTYPE svg PUBLIC "-//W3C//DTD SVG 20010904//EN"
 "http://www.w3.org/TR/2001/REC-SVG-20010904/DTD/svg10.dtd">
<svg version="1.0" xmlns="http://www.w3.org/2000/svg"
 width="700.000000pt" height="700.000000pt" viewBox="0 0 700.000000 700.000000"
 preserveAspectRatio="xMidYMid meet">
<metadata>
Created by potrace 1.11, written by Peter Selinger 2001-2013
</metadata>
<g transform="translate(0.000000,700.000000) scale(0.100000,-0.100000)"
fill="#000000" stroke="none">
<path d="M3357 6994 c-1 -2 -43 -4 -92 -5 -80 -2 -122 -5 -270 -23 -22 -3 -76
-12 -120 -21 -44 -9 -93 -19 -110 -22 -64 -11 -319 -95 -422 -139 -742 -317
-1291 -941 -1511 -1719 -23 -79 -49 -194 -58 -252 -3 -21 -8 -51 -10 -68 -33
-187 -36 -495 -9 -715 4 -36 17 -121 20 -130 1 -3 5 -25 9 -50 43 -250 196
-648 325 -848 23 -34 41 -67 41 -72 0 -4 3 -10 8 -12 4 -1 21 -24 37 -50 17
-25 228 -247 470 -494 242 -246 492 -500 555 -565 63 -64 295 -301 516 -525
628 -640 834 -850 1051 -1072 l201 -205 1119 -1 c615 -1 1126 1 1136 3 13 3
-399 421 -1537 1560 -855 856 -1621 1624 -1701 1706 -81 83 -209 214 -286 292
-182 186 -256 299 -317 483 -29 87 -49 229 -46 326 2 72 4 97 20 189 2 17 14
59 26 95 112 341 373 590 713 680 506 133 1023 -139 1214 -637 11 -29 23 -64
26 -78 3 -14 7 -35 10 -47 20 -96 24 -138 20 -243 -4 -133 -7 -162 -30 -244
-33 -117 -100 -255 -168 -346 -17 -22 -164 -174 -326 -338 -163 -164 -298
-300 -300 -303 -5 -5 1130 -1144 1140 -1144 3 0 159 153 347 341 277 277 356
362 422 455 221 311 344 559 438 884 22 74 42 153 46 175 7 50 15 95 21 115 2
8 7 42 10 75 4 33 10 87 14 119 9 67 6 447 -3 516 -68 483 -196 829 -449 1205
-33 50 -72 104 -86 121 -14 17 -44 53 -66 80 -368 447 -914 775 -1479 889
-184 37 -217 42 -376 50 -63 4 -130 8 -148 9 -18 1 -33 1 -35 0z"/>
<path d="M1124 1245 l0 -1235 25 -1 c108 -4 2451 -3 2451 1 0 7 -2465 2470
-2471 2470 -3 0 -5 -556 -5 -1235z"/>
</g>
</svg>
